<?xml version="1.0" encoding="UTF-8" standalone="no"?>
<!-- Generator: Adobe Illustrator 18.1.1, SVG Export Plug-In . SVG Version: 6.00 Build 0)  -->

<svg
   xmlns:dc="http://purl.org/dc/elements/1.1/"
   xmlns:cc="http://creativecommons.org/ns#"
   xmlns:rdf="http://www.w3.org/1999/02/22-rdf-syntax-ns#"
   xmlns:svg="http://www.w3.org/2000/svg"
   xmlns="http://www.w3.org/2000/svg"
   xmlns:sodipodi="http://sodipodi.sourceforge.net/DTD/sodipodi-0.dtd"
   xmlns:inkscape="http://www.inkscape.org/namespaces/inkscape"
   version="1.1"
   id="Layer_1"
   x="0px"
   y="0px"
   viewBox="0 0 1080 720"
   enable-background="new 0 0 1080 720"
   xml:space="preserve"
   inkscape:version="0.91 r13725"
   sodipodi:docname="logo_white.svg"><metadata
     id="metadata4243"><rdf:RDF><cc:Work
         rdf:about=""><dc:format>image/svg+xml</dc:format><dc:type
           rdf:resource="http://purl.org/dc/dcmitype/StillImage" /></cc:Work></rdf:RDF></metadata><defs
     id="defs4241" /><sodipodi:namedview
     pagecolor="#ffffff"
     bordercolor="#666666"
     borderopacity="1"
     objecttolerance="10"
     gridtolerance="10"
     guidetolerance="10"
     inkscape:pageopacity="0"
     inkscape:pageshadow="2"
     inkscape:window-width="2556"
     inkscape:window-height="1365"
     id="namedview4239"
     showgrid="false"
     inkscape:zoom="1.6319444"
     inkscape:cx="540"
     inkscape:cy="360"
     inkscape:window-x="1080"
     inkscape:window-y="423"
     inkscape:window-maximized="0"
     inkscape:current-layer="Layer_1" /><g
     id="Layer_1_1_"><path
       display="none"
       d="M440.6,706.4v76.7h64.8v-76.7h14.5v67.8c0,8.3-1.5,13.7-4.4,16.6c-2.9,2.9-8.5,4.4-16.5,4.4h-52.6   c-8,0-13.6-1.5-16.5-4.4c-2.9-3-4.4-8.5-4.4-16.6v-67.8L440.6,706.4L440.6,706.4z"
       id="path4202" /><path
       display="none"
       d="M632.6,717.9h-51.2v31.3h51.2c3.6,0,6.3-0.8,7.7-2.1c1.4-1.4,2.1-3.6,2.1-7.1v-13c0-3.5-0.8-5.7-2.1-7.1   C638.6,718.7,636.2,717.9,632.6,717.9L632.6,717.9z M566.6,795.4v-89h71.7c6.6,0,11.5,1.4,14.3,4.1c2.9,2.7,4.4,7.1,4.4,13.3v19.9   c0,5.9-1.5,10.4-4.4,13c-2.9,2.6-7.7,4.1-14.3,4.1h-13l40.6,34.7h-22.1l-36.3-34.7h-26.3v34.7h-14.8V795.4z"
       id="path4204" /><polygon
       display="none"
       points="725.8,795.4 725.8,756.7 680.5,706.4 698.9,706.4 733.8,746.2 767.2,706.4 785.2,706.4    740.4,756.3 740.4,795.4  "
       id="polygon4206" /></g><g
     id="g4208"
     style="fill:#000000"><g
       id="Layer_2"
       style="fill:#000000"><g
         id="g4211"
         style="fill:#000000"><g
           id="g4213"
           style="fill:#000000"><path
             fill="#FFFFFF"
             d="M188.1,133.4c0,0-189,80.4-188.1,226.7c0.9,151,188.1,226.4,188.1,226.4S76.6,480.2,76.6,360      C76.6,220.3,188.1,133.4,188.1,133.4z"
             id="path4215"
             style="fill:#000000" /></g><g
           id="g4217"
           style="fill:#000000"><path
             fill="#FFFFFF"
             d="M257.4,184.8c0,0-146.4,62.1-145.6,175.2c0.6,116.6,145.6,174.9,145.6,174.9s-86.1-82.2-86.1-175.2      C171.1,251.8,257.4,184.8,257.4,184.8z"
             id="path4219"
             style="fill:#000000" /></g></g><g
         id="g4221"
         style="fill:#000000"><g
           id="g4223"
           style="fill:#000000"><path
             fill="#FFFFFF"
             d="M891.9,133.4c0,0,189,80.4,188.1,226.7c-0.9,151-188.1,226.4-188.1,226.4s111.3-106.3,111.3-226.6      C1003.4,220.3,891.9,133.4,891.9,133.4z"
             id="path4225"
             style="fill:#000000" /></g><g
           id="g4227"
           style="fill:#000000"><path
             fill="#FFFFFF"
             d="M822.6,184.8c0,0,146.4,62.1,145.6,175.2c-0.6,116.6-145.6,174.9-145.6,174.9s86.1-82.2,86.1-175.2      C908.9,251.8,822.6,184.8,822.6,184.8z"
             id="path4229"
             style="fill:#000000" /></g></g></g><g
       id="g4231"
       style="fill:#000000"><path
         fill="#FFFFFF"
         d="M323.5,264.1v83.8c0,0.5,0.3,1.7,0.8,3.5c0.5,1.8,1.1,3.9,1.7,6c0.6,2.3,1.2,4.4,2,6.5    c0.8,2.1,1.2,3.6,1.7,4.7c1.8,4.2,4.2,7.9,6.9,10.7c2.9,2.9,6,5.1,9.5,6.9c3.5,1.8,7.3,3,11.3,3.8c4.1,0.8,8.2,1.2,12.2,1.2    c11.2,0,20.1-2.1,26.7-6.5c6.6-4.4,12.2-11.9,16.9-22.8c0.2-0.5,0.5-1.1,0.8-2c0.5-0.9,0.8-1.7,0.9-2.6c0.3-0.9,0.5-1.8,0.8-2.6    s0.3-1.2,0.3-1.4v-89.1h35v94.1c0,0.3-0.2,0.8-0.3,1.5c-0.2,0.8-0.3,1.5-0.6,2.4s-0.5,1.8-0.6,2.6c-0.2,0.9-0.3,1.5-0.5,2    c-2.7,9.5-6.5,18-11.3,25.7c-4.8,7.6-10.6,14-17.2,19.3c-6.6,5.4-14.2,9.5-22.7,12.4c-8.5,2.9-17.7,4.4-27.3,4.4    c-10.1,0-20.1-1.8-29.8-5.4c-9.8-3.6-18.6-8.6-26.3-15.1s-14-14.2-18.9-23.3s-7.3-19-7.3-30.1v-90.8L323.5,264.1L323.5,264.1z"
         id="path4233"
         style="fill:#000000" /><path
         fill="#FFFFFF"
         d="M462.1,346.3c0-9.7,1.8-19.3,5.3-29c3.5-9.7,8.5-18.6,14.8-26.4c6.3-7.9,13.9-14.3,22.7-19.2    s18.4-7.4,29-7.4h92.3v36.9H532c-3.9,0-7.9,1.4-11.8,4.1c-3.9,2.7-7.4,6-10.7,9.8c-3.2,3.9-5.7,8-7.9,12.5c-2,4.4-3,8.5-3,12.2    v88.8h-36.7v-82.3H462.1z"
         id="path4235"
         style="fill:#000000" /><path
         fill="#FFFFFF"
         d="M671.3,418.5c-7.7-4.4-14.5-9.7-20.5-15.7c-6-6.2-10.9-13.1-14.7-20.8c-3.8-7.9-5.6-16.2-5.6-25.2v-92.6    h35v83.8c0,1.8,0.3,3.9,0.9,6.2s1.4,4.7,2.4,6.9c1.1,2.4,2,4.7,3.2,6.8c1.1,2.1,2.1,4.1,3,5.7c2,3.5,4.4,6.5,7.1,8.8    c2.7,2.3,5.7,4.1,8.9,5.4s6.6,2.1,10.3,2.6c3.6,0.5,7.4,0.8,11,0.8c9.8,0,18.1-2,25.1-6c6.9-3.9,12.4-10.6,16.2-19.9    c0.3-0.8,0.8-1.8,1.2-3.2c0.6-1.4,1.1-2.6,1.5-3.9s0.9-2.4,1.2-3.3c0.3-0.9,0.5-1.5,0.5-1.7v-89.1h35V360c0,2.7-0.5,5.7-1.4,9.1    s-2.1,6.6-3.5,9.8c-1.4,3.3-2.9,6.3-4.5,9.4c-1.7,2.9-3.2,5.4-4.5,7.6c-5.1,8.5-11.9,15-20.2,19.8c-8.3,4.7-16.9,8.5-26,11.3    l-2.7,1.7V492h-35.8v-63.4C686.8,426.2,679,422.8,671.3,418.5z"
         id="path4237"
         style="fill:#000000" /></g></g></svg>